<mxfile host="Electron" agent="Mozilla/5.0 (Windows NT 10.0; Win64; x64) AppleWebKit/537.36 (KHTML, like Gecko) draw.io/24.7.17 Chrome/128.0.6613.36 Electron/32.0.1 Safari/537.36" version="24.7.17">
  <diagram name="Pagina-1" id="Hx0jK5mobjS4Xru3lnk3">
    <mxGraphModel dx="811" dy="470" grid="1" gridSize="10" guides="1" tooltips="1" connect="1" arrows="1" fold="1" page="1" pageScale="1" pageWidth="827" pageHeight="1169" math="1" shadow="0">
      <root>
        <mxCell id="0" />
        <mxCell id="1" parent="0" />
        <mxCell id="nLjuOkmS1VpdRrUOPc_t-1" value="" style="shape=cylinder3;whiteSpace=wrap;html=1;boundedLbl=1;backgroundOutline=1;size=11.656976744186068;rotation=90;fillColor=#f5f5f5;gradientColor=#b3b3b3;strokeColor=#666666;" vertex="1" parent="1">
          <mxGeometry x="347.82" y="265.94" width="46.87" height="205" as="geometry" />
        </mxCell>
        <mxCell id="nLjuOkmS1VpdRrUOPc_t-9" value="" style="shape=waypoint;sketch=0;fillStyle=solid;size=6;pointerEvents=1;points=[];fillColor=#1ba1e2;resizable=0;rotatable=0;perimeter=centerPerimeter;snapToPoint=1;strokeColor=#006EAF;fontColor=#ffffff;" vertex="1" parent="1">
          <mxGeometry x="360" y="358.44" width="20" height="20" as="geometry" />
        </mxCell>
        <mxCell id="nLjuOkmS1VpdRrUOPc_t-10" value="" style="endArrow=classic;html=1;rounded=0;fillColor=#1ba1e2;strokeColor=#006EAF;" edge="1" parent="1">
          <mxGeometry width="50" height="50" relative="1" as="geometry">
            <mxPoint x="370" y="368.32" as="sourcePoint" />
            <mxPoint x="430" y="368" as="targetPoint" />
          </mxGeometry>
        </mxCell>
        <mxCell id="nLjuOkmS1VpdRrUOPc_t-11" value="\(\bar E\)" style="text;html=1;align=center;verticalAlign=middle;whiteSpace=wrap;rounded=0;" vertex="1" parent="1">
          <mxGeometry x="370" y="340" width="60" height="30" as="geometry" />
        </mxCell>
        <mxCell id="nLjuOkmS1VpdRrUOPc_t-12" value="" style="shape=cylinder3;whiteSpace=wrap;html=1;boundedLbl=1;backgroundOutline=1;size=11.656976744186068;rotation=90;fillColor=#f5f5f5;gradientColor=#b3b3b3;strokeColor=#666666;" vertex="1" parent="1">
          <mxGeometry x="650" y="265.94" width="46.87" height="205" as="geometry" />
        </mxCell>
        <mxCell id="nLjuOkmS1VpdRrUOPc_t-13" value="" style="shape=waypoint;sketch=0;fillStyle=solid;size=6;pointerEvents=1;points=[];fillColor=#a20025;resizable=0;rotatable=0;perimeter=centerPerimeter;snapToPoint=1;strokeColor=#6F0000;fontColor=#ffffff;" vertex="1" parent="1">
          <mxGeometry x="662.1800000000001" y="358.44" width="20" height="20" as="geometry" />
        </mxCell>
        <mxCell id="nLjuOkmS1VpdRrUOPc_t-14" value="" style="endArrow=classic;html=1;rounded=0;fillColor=#a20025;strokeColor=#6F0000;" edge="1" parent="1">
          <mxGeometry width="50" height="50" relative="1" as="geometry">
            <mxPoint x="672.18" y="368.38" as="sourcePoint" />
            <mxPoint x="712.18" y="368.38" as="targetPoint" />
          </mxGeometry>
        </mxCell>
        <mxCell id="nLjuOkmS1VpdRrUOPc_t-15" value="\(\bar j\)" style="text;html=1;align=center;verticalAlign=middle;whiteSpace=wrap;rounded=0;" vertex="1" parent="1">
          <mxGeometry x="672.18" y="350" width="60" height="10" as="geometry" />
        </mxCell>
        <mxCell id="nLjuOkmS1VpdRrUOPc_t-16" value="\(\iff\)" style="text;html=1;align=center;verticalAlign=middle;whiteSpace=wrap;rounded=0;fontSize=27;" vertex="1" parent="1">
          <mxGeometry x="470" y="353.44" width="100" height="30" as="geometry" />
        </mxCell>
      </root>
    </mxGraphModel>
  </diagram>
</mxfile>
